<?xml version="1.0" ?><svg data-name="add user" height="60.031" id="add_user" viewBox="0 0 59.875 60.031" width="59.875" xmlns="http://www.w3.org/2000/svg"><defs><style>
      .cls-1 {
        fill: #9f4c4c;
      }

      .cls-1, .cls-2 {
        fill-rule: evenodd;
      }

      .cls-2 {
        fill: #9f4c4c;
      }
    </style></defs><path class="cls-1" d="M673.732,711.059c-0.515,2.6-1.1,5.991-2.857,5.991a1.622,1.622,0,0,1-.568-0.122c-0.594,1.447-1.291,4.5-2.08,5.969a17.955,17.955,0,0,0-3.618,27.1H630s1.523-8.425,4.2-8.986c16.79-3.523,17.786-12.908,17.786-12.908v-4.839c-0.875-1.261-1.643-4.763-2.289-6.338a1.627,1.627,0,0,1-.568.122c-1.759,0-2.342-3.389-2.857-5.991a6.631,6.631,0,0,1-.02-3.266c0-.123-0.021-0.248-0.021-0.37,0-9.285,3.642-16.34,11.773-17.321,0,0,1.306-.069,1.906-0.107,0.44,0.036,2.094.107,2.094,0.107,8.131,0.981,11.773,8.036,11.773,17.321,0,0.122-.019.247-0.021,0.37A6.631,6.631,0,0,1,673.732,711.059ZM660,689.974h0a0.672,0.672,0,1,1-.094.021C659.754,689.983,659.745,689.974,660,689.974Z" data-name="user copy" id="user_copy" transform="translate(-630 -689.969)"/><path class="cls-2" d="M677.875,726a12,12,0,1,1-12,12A12,12,0,0,1,677.875,726ZM672,740h4v4a2,2,0,0,0,4,0v-4h4a2,2,0,0,0,0-4h-4v-4a2,2,0,0,0-4,0v4h-4A2,2,0,0,0,672,740Z" id="add" transform="translate(-630 -689.969)"/></svg>
