<?xml version="1.0" ?><svg id="Layer_1" style="enable-background:new 0 0 50 50;" version="1.1" viewBox="0 0 50 50" xml:space="preserve" xmlns="http://www.w3.org/2000/svg" xmlns:xlink="http://www.w3.org/1999/xlink"><g id="Layer_1_1_"><path fill="#890309" d="M49,20V6h-8V1h-2v5H11V1H9v5H1v14v29h48V20z M3,8h6v5h2V8h28v5h2V8h6v10H3V8z M3,47V20h44v27H3z"/><path fill="#890309" d="M6,44h38V24H6V44z M8,38h4v4H8V38z M36,36h-4v-4h4V36z M38,32h4v4h-4V32z M20,38h4v4h-4V38z M18,42h-4v-4h4V42z M24,36h-4   v-4h4V36z M26,32h4v4h-4V32z M26,38h4v4h-4V38z M32,38h4v4h-4V38z M32,30v-4h4v4H32z M30,30h-4v-4h4V30z M24,30h-4v-4h4V30z M18,30   h-4v-4h4V30z M18,32v4h-4v-4H18z M12,36H8v-4h4V36z M38,42v-4h4v4H38z M42,30h-4v-4h4V30z M12,26v4H8v-4H12z"/></g></svg>