<?xml version="1.0" ?><svg viewBox="0 0 64 64" xmlns="http://www.w3.org/2000/svg"><defs><style>.cls-1{fill:#fff;}.cls-2{fill:#1394f6;}</style></defs><title/><g data-name="filled outline" id="filled_outline"><rect class="cls-1" height="50" rx="5" transform="translate(66.5 2.5) rotate(90)" width="41" x="11.5" y="9.5"/><path class="cls-2" d="M7,24V19a5,5,0,0,1,5-5H52a5,5,0,0,1,5,5v5Z"/><path class="cls-1" d="M20,19a2,2,0,0,1-2-2V11a2,2,0,0,1,4,0v6A2,2,0,0,1,20,19Z"/><path class="cls-1" d="M44,19a2,2,0,0,1-2-2V11a2,2,0,0,1,4,0v6A2,2,0,0,1,44,19Z"/><path d="M52,13H47V11a3,3,0,0,0-6,0v2H23V11a3,3,0,0,0-6,0v2H12a6,6,0,0,0-6,6V50a6,6,0,0,0,6,6H52a6,6,0,0,0,6-6V19A6,6,0,0,0,52,13Zm-9-2a1,1,0,0,1,2,0v6a1,1,0,0,1-2,0ZM19,11a1,1,0,0,1,2,0v6a1,1,0,0,1-2,0Zm-7,4h5v2a3,3,0,0,0,6,0V15H41v2a3,3,0,0,0,6,0V15h5a4,4,0,0,1,4,4v5H8V19A4,4,0,0,1,12,15ZM52,54H12a4,4,0,0,1-4-4V26H56V50A4,4,0,0,1,52,54ZM22,44.5V46h8v2H20V44.5A5.51,5.51,0,0,1,25.5,39a2.5,2.5,0,0,0,0-5H21V32h4.5a4.5,4.5,0,0,1,0,9A3.5,3.5,0,0,0,22,44.5ZM44,36v8a4,4,0,0,1-4,4H34V46h6a2,2,0,0,0,2-2V41H36V39h6V36a2,2,0,0,0-2-2H34V32h6A4,4,0,0,1,44,36Z"/></g></svg>