<?xml version="1.0" encoding="UTF-8" standalone="no"?>
<!DOCTYPE svg PUBLIC "-//W3C//DTD SVG 1.1//EN" "http://www.w3.org/Graphics/SVG/1.1/DTD/svg11.dtd">
<svg xmlns="http://www.w3.org/2000/svg" version="1.1" viewBox="0.00 0.00 867.00 207.00">
<g fill="#890309">
<path d="
  M 692.65 161.96
  C 659.29 162.88 634.85 137.42 635.18 104.59
  C 635.54 67.91 665.57 43.43 701.60 49.14
  C 720.09 52.08 734.90 63.54 741.89 80.93
  A 0.77 0.77 0.0 0 1 741.20 81.99
  Q 734.12 82.22 726.13 81.95
  Q 725.09 81.91 724.63 80.98
  Q 717.81 67.11 703.22 62.57
  C 694.57 59.87 684.51 60.27 675.94 63.43
  C 660.54 69.12 651.68 82.99 650.18 99.35
  Q 649.24 109.57 651.29 118.25
  C 654.92 133.58 666.99 146.14 682.59 148.69
  C 700.03 151.55 715.45 146.38 724.37 130.39
  Q 725.12 129.07 726.70 128.98
  Q 734.30 128.57 741.58 129.12
  A 0.45 0.45 0.0 0 1 741.97 129.74
  C 733.91 150.21 714.25 161.36 692.65 161.96
  Z"
/>
<path d="
  M 450.75 115.01
  A 0.75 0.75 0.0 0 0 450.00 115.76
  L 450.00 159.51
  A 0.51 0.50 -0.0 0 1 449.49 160.01
  L 436.51 160.01
  Q 436.00 160.01 436.00 159.51
  L 436.00 50.23
  A 1.24 1.24 0.0 0 1 437.25 48.99
  Q 451.09 49.07 464.61 48.89
  Q 472.58 48.79 480.20 49.71
  C 498.47 51.93 511.25 64.95 510.15 83.81
  C 509.27 98.90 499.93 110.03 484.86 113.35
  A 0.88 0.88 0.0 0 0 484.26 114.60
  Q 484.66 115.42 485.13 116.22
  Q 497.09 136.44 510.75 159.03
  Q 511.36 160.03 510.19 160.04
  L 495.29 160.05
  A 2.07 2.06 74.7 0 1 493.51 159.03
  L 468.56 116.18
  A 2.40 2.39 -15.0 0 0 466.49 114.99
  L 450.75 115.01
  Z
  M 449.89 61.66
  L 450.11 102.70
  A 0.59 0.59 0.0 0 0 450.70 103.29
  L 475.30 103.16
  A 20.03 19.11 -0.3 0 0 495.23 83.94
  L 495.21 79.94
  A 20.03 19.11 -0.3 0 0 475.08 60.94
  L 450.48 61.07
  A 0.59 0.59 0.0 0 0 449.89 61.66
  Z"
/>
<path d="
  M 76.27 61.43
  L 76.27 159.58
  A 0.43 0.43 0.0 0 1 75.84 160.01
  L 62.43 160.01
  A 0.43 0.43 0.0 0 1 62.00 159.58
  L 62.00 61.43
  A 0.43 0.43 0.0 0 0 61.57 61.00
  L 32.16 61.00
  A 0.43 0.43 0.0 0 1 31.73 60.57
  L 31.75 49.43
  A 0.43 0.43 0.0 0 1 32.18 49.00
  L 106.59 49.01
  A 0.43 0.43 0.0 0 1 107.02 49.44
  L 106.99 60.57
  A 0.43 0.43 0.0 0 1 106.56 61.00
  L 76.70 61.00
  A 0.43 0.43 0.0 0 0 76.27 61.43
  Z"
/>
<path d="
  M 372.59 61.00
  L 342.40 61.00
  A 0.40 0.40 0.0 0 1 342.00 60.60
  L 342.00 49.40
  A 0.40 0.40 0.0 0 1 342.40 49.00
  L 416.60 49.00
  A 0.40 0.40 0.0 0 1 417.00 49.40
  L 417.00 60.60
  A 0.40 0.40 0.0 0 1 416.60 61.00
  L 387.40 61.00
  A 0.40 0.40 0.0 0 0 387.00 61.40
  L 387.00 159.61
  A 0.40 0.40 0.0 0 1 386.60 160.01
  L 373.39 160.01
  A 0.40 0.40 0.0 0 1 372.99 159.61
  L 372.99 61.40
  A 0.40 0.40 0.0 0 0 372.59 61.00
  Z"
/>
<path d="
  M 598.76 136.46
  Q 598.50 135.99 597.97 135.99
  L 551.28 135.99
  A 2.00 1.99 -80.3 0 0 549.40 137.33
  L 541.51 159.87
  A 1.70 1.70 0.0 0 1 539.91 161.00
  L 526.75 161.00
  Q 525.89 161.00 526.18 160.20
  L 565.82 51.10
  Q 566.29 49.81 567.66 49.82
  L 581.86 49.92
  A 1.33 1.32 -9.4 0 1 583.10 50.80
  Q 600.38 98.83 618.74 149.22
  Q 620.94 155.24 622.71 160.73
  A 0.26 0.25 81.4 0 1 622.47 161.06
  L 609.13 161.04
  A 1.92 1.91 80.3 0 1 607.32 159.75
  Q 603.72 149.42 600.23 139.75
  Q 599.59 137.95 598.76 136.46
  Z
  M 554.31 123.68
  A 0.32 0.32 0.0 0 0 554.61 124.11
  L 594.25 124.11
  A 0.32 0.32 0.0 0 0 594.55 123.68
  L 574.73 68.61
  A 0.32 0.32 0.0 0 0 574.13 68.61
  L 554.31 123.68
  Z"
/>
<path d="
  M 779.16 100.34
  C 783.09 96.79 786.26 92.78 789.77 88.89
  Q 807.00 69.76 823.43 51.05
  A 3.59 3.59 0.0 0 1 826.15 49.83
  L 841.05 49.94
  Q 842.64 49.95 841.58 51.13
  L 793.27 104.48
  A 1.57 1.56 -45.7 0 0 793.29 106.61
  C 809.42 123.56 825.59 141.46 842.50 160.01
  Q 843.39 160.99 842.07 161.02
  Q 833.36 161.22 825.55 160.95
  C 823.67 160.89 822.90 159.13 821.80 157.90
  Q 803.58 137.61 786.36 118.68
  C 784.02 116.12 782.22 113.31 779.55 111.06
  A 0.63 0.63 0.0 0 0 778.52 111.54
  L 778.52 160.49
  Q 778.52 161.00 778.01 161.00
  L 764.50 161.00
  Q 764.00 161.00 764.00 160.50
  L 764.00 50.62
  Q 764.00 50.00 764.63 50.00
  L 778.01 50.00
  Q 778.52 50.00 778.52 50.51
  L 778.52 100.06
  Q 778.52 100.92 779.16 100.34
  Z"
/>
</g>
<g fill="#000000">
<path d="
  M 296.81 70.08
  Q 304.64 85.95 304.90 104.71
  Q 304.91 104.93 304.70 104.93
  L 295.53 105.07
  Q 295.17 105.07 295.16 104.71
  Q 294.97 96.78 294.16 92.97
  Q 287.17 60.09 259.41 44.11
  C 220.62 21.76 171.36 42.03 158.05 84.22
  Q 155.10 93.57 154.90 103.52
  C 154.35 130.13 168.45 153.03 191.14 166.27
  C 201.20 172.14 213.01 175.17 224.85 175.22
  A 0.27 0.27 0.0 0 1 225.12 175.50
  L 224.90 184.74
  Q 224.89 184.95 224.68 184.94
  Q 209.26 184.19 200.11 180.98
  Q 167.36 169.48 152.42 138.42
  Q 147.42 128.01 145.49 112.98
  Q 144.30 103.76 146.02 93.03
  Q 149.69 70.09 164.42 53.04
  Q 184.43 29.89 214.31 25.92
  Q 240.36 22.46 263.92 35.13
  C 277.72 42.55 289.80 55.89 296.81 70.08
  Z"
/>
<path d="
  M 220.01 102.23
  L 220.00 51.00
  A 1.00 1.00 0.0 0 1 221.00 50.00
  L 229.24 50.01
  A 0.77 0.77 0.0 0 1 230.01 50.78
  Q 229.95 78.82 230.09 103.30
  Q 230.11 106.73 227.79 109.04
  Q 211.14 125.69 193.94 142.89
  A 0.61 0.61 0.0 0 1 193.07 142.88
  L 187.29 136.79
  Q 186.84 136.32 187.30 135.86
  L 219.35 103.82
  A 2.26 2.24 -22.6 0 0 220.01 102.23
  Z"
/>
<path d="
  M 275.00 150.58
  L 275.00 169.42
  A 0.58 0.58 0.0 0 1 274.42 170.00
  L 265.58 170.00
  A 0.58 0.58 0.0 0 1 265.00 169.42
  L 265.00 150.58
  A 0.58 0.58 0.0 0 0 264.42 150.00
  L 245.58 150.00
  A 0.58 0.58 0.0 0 1 245.00 149.42
  L 245.00 140.58
  A 0.58 0.58 0.0 0 1 245.58 140.00
  L 264.42 140.00
  A 0.58 0.58 0.0 0 0 265.00 139.42
  L 265.00 120.58
  A 0.58 0.58 0.0 0 1 265.58 120.00
  L 274.41 120.00
  A 0.58 0.58 0.0 0 1 274.99 120.58
  L 275.00 139.42
  A 0.58 0.58 0.0 0 0 275.58 140.00
  L 294.42 140.00
  A 0.58 0.58 0.0 0 1 295.00 140.58
  L 295.00 149.42
  A 0.58 0.58 0.0 0 1 294.42 150.00
  L 275.58 150.00
  A 0.58 0.58 0.0 0 0 275.00 150.58
  Z"
/>
</g>
</svg>
